<?xml version="1.0" ?><!DOCTYPE svg  PUBLIC '-//W3C//DTD SVG 1.1//EN'  'http://www.w3.org/Graphics/SVG/1.1/DTD/svg11.dtd'><svg enable-background="new 0 0 64 64" height="64px" id="Layer_1" version="1.1" viewBox="0 0 64 64" width="64px" xml:space="preserve" xmlns="http://www.w3.org/2000/svg" xmlns:xlink="http://www.w3.org/1999/xlink"><g id="funding"><g id="cloud"><g><path d="M53.723,27.02l-1.532-0.051l0.56-1.426c0.5-1.274,0.754-2.603,0.754-3.948     c0-5.97-4.857-10.826-10.826-10.826c-1.693,0-3.326,0.392-4.854,1.161l-1.054,0.53l-0.439-1.097     C34.345,6.398,29.612,3.19,24.274,3.19c-7.164,0-12.992,5.827-12.992,12.991c0,1.753,0.343,3.452,1.018,5.054l0.567,1.339     l-1.448,0.157c-4.398,0.479-7.715,4.178-7.715,8.606c0,4.775,3.885,8.662,8.661,8.662c1.563,0,3.108-0.434,4.465-1.25     l0.428-0.259l0.473,0.157C20.385,39.531,23.396,40,26.439,40c3.031,0,6.029-0.462,8.669-1.337l0.4-0.133l0.385,0.172     C37.752,39.539,40.162,40,42.678,40c2.313,0,4.57-0.394,6.359-1.112l0.516-0.206l0.47,0.299c1.044,0.668,2.248,1.02,3.481,1.02     C57.086,40,60,37.087,60,33.505C60,29.985,57.243,27.138,53.723,27.02z" fill="#B3EBF2"/></g><g><path d="M53.723,27.02l-1.532-0.051l0.56-1.426c0.5-1.274,0.754-2.603,0.754-3.948     c0-3.34-1.522-6.329-3.907-8.317c0.001,0.007,0.005,0.012,0.007,0.019c-0.367-0.307-0.754-0.587-1.158-0.846     c-0.021-0.015-0.045-0.027-0.067-0.042c-0.382-0.239-0.781-0.454-1.195-0.646c-0.019-0.007-0.037-0.018-0.055-0.024     c0.612,1.356,0.962,2.856,0.962,4.443c0,5.979-4.848,10.827-10.826,10.827c-1.542,0-2.999-0.335-4.327-0.916     c-0.038-0.05-0.071-0.102-0.106-0.154c2.712-2.38,4.433-5.864,4.433-9.757c0-1.579-0.303-3.078-0.82-4.476     c0.003-0.01,0.007-0.021,0.011-0.03l-0.125-0.313c-0.91-2.276-2.404-4.178-4.264-5.576c0.017,0.025,0.037,0.051,0.053,0.078     c-0.354-0.271-0.712-0.534-1.094-0.768c1.204,1.972,1.909,4.277,1.909,6.755c0,7.175-5.816,12.99-12.992,12.99     c-2.477,0-4.783-0.706-6.752-1.907c1.12,1.834,2.684,3.363,4.536,4.453c0.02,0.233,0.052,0.464,0.052,0.702     c0,4.781-3.879,8.661-8.661,8.661c-1.556,0-3.012-0.415-4.274-1.135c0.006,0.01,0.014,0.02,0.02,0.031     c0.443,0.768,1.008,1.453,1.657,2.049c-0.005,0-0.012-0.001-0.018-0.003C8.046,39.119,10.102,40,12.365,40     c1.563,0,3.108-0.434,4.465-1.25l0.428-0.259l0.473,0.157C20.385,39.531,23.396,40,26.439,40c3.031,0,6.029-0.462,8.669-1.337     l0.4-0.133l0.385,0.172C37.752,39.539,40.162,40,42.678,40c2.313,0,4.57-0.394,6.359-1.112l0.516-0.206l0.47,0.299     c1.044,0.668,2.248,1.02,3.481,1.02C57.086,40,60,37.087,60,33.505C60,29.985,57.243,27.138,53.723,27.02z" fill="#80DEEA"/></g></g><g><g><path d="M36.989,58.011c-3.313-3.314-3.313-8.707,0-12.021c3.314-3.313,8.707-3.313,12.021,0     c3.313,3.314,3.313,8.707,0,12.021C45.696,61.324,40.304,61.324,36.989,58.011z" fill="#FFD740"/><path d="M43,44c4.411,0,8,3.589,8,8s-3.589,8-8,8s-8-3.589-8-8S38.589,44,43,44 M43,43c-4.971,0-9,4.03-9,9     s4.029,9,9,9s9-4.03,9-9S47.971,43,43,43L43,43z" fill="#FDD835"/></g><path d="M36.133,56.563c-1.367-3.184-0.766-7.009,1.835-9.609c2.734-2.734,6.827-3.263,10.1-1.606    c0-0.093,0.001-0.186,0.007-0.279c-3.363-2.06-7.813-1.642-10.725,1.269c-2.779,2.779-3.291,6.967-1.539,10.267    C35.917,56.586,36.024,56.57,36.133,56.563z" fill="#FFFFFF"/><g><path d="M43,58.5c-3.584,0-6.5-2.916-6.5-6.5s2.916-6.5,6.5-6.5s6.5,2.916,6.5,6.5S46.584,58.5,43,58.5z" fill="#FFE57F"/><path d="M43,46c3.309,0,6,2.691,6,6s-2.691,6-6,6s-6-2.691-6-6S39.691,46,43,46 M43,45c-3.865,0-7,3.137-7,7     s3.135,7,7,7s7-3.137,7-7S46.865,45,43,45L43,45z" fill="#FFC400"/></g><g><path d="M43,49c0.719,0,1,0.521,1,1h2c0-0.814-0.674-1.619-2-1.894V47h-2v1.092c-1.326,0.24-2,1.009-2,2.408     c0,1.313,1.031,2.5,3,2.5c0.577,0,1,0.438,1,1c0,0.595-0.334,1-1,1s-1-0.367-1-1h-2c0,1.245,0.684,1.78,2,1.94V57h2v-1.075     c1.326-0.2,2.025-0.874,2-2.425c0-1.375-1-2.499-3-2.499c-0.563,0-1-0.313-1-1.001C42,49.482,42.281,49,43,49z" fill="#FFAB00"/></g><path d="M43,44c4.411,0,8,3.589,8,8s-3.589,8-8,8s-8-3.589-8-8S38.589,44,43,44 M43,43c-4.971,0-9,4.03-9,9    s4.029,9,9,9s9-4.03,9-9S47.971,43,43,43L43,43z" fill="#FFC400"/></g><g><g><path d="M13.989,51.011c-3.313-3.314-3.313-8.707,0-12.021c3.314-3.313,8.707-3.313,12.021,0     c3.313,3.314,3.313,8.707,0,12.021C22.696,54.324,17.304,54.324,13.989,51.011z" fill="#FFD740"/><path d="M20,37c4.411,0,8,3.589,8,8s-3.589,8-8,8s-8-3.589-8-8S15.589,37,20,37 M20,36c-4.971,0-9,4.03-9,9     s4.029,9,9,9s9-4.03,9-9S24.971,36,20,36L20,36z" fill="#FDD835"/></g><path d="M13.133,49.563c-1.367-3.184-0.766-7.009,1.835-9.609c2.734-2.734,6.827-3.263,10.1-1.606    c0-0.093,0.001-0.186,0.007-0.279c-3.363-2.06-7.813-1.642-10.725,1.269c-2.779,2.779-3.291,6.967-1.539,10.267    C12.917,49.586,13.024,49.57,13.133,49.563z" fill="#FFFFFF"/><g><path d="M20,51.5c-3.584,0-6.5-2.916-6.5-6.5s2.916-6.5,6.5-6.5s6.5,2.916,6.5,6.5S23.584,51.5,20,51.5z" fill="#FFE57F"/><path d="M20,39c3.309,0,6,2.691,6,6s-2.691,6-6,6s-6-2.691-6-6S16.691,39,20,39 M20,38c-3.865,0-7,3.137-7,7     s3.135,7,7,7s7-3.137,7-7S23.865,38,20,38L20,38z" fill="#FFC400"/></g><g><path d="M20,42c0.719,0,1,0.521,1,1h2c0-0.814-0.674-1.619-2-1.894V40h-2v1.092c-1.326,0.24-2,1.009-2,2.408     c0,1.313,1.031,2.5,3,2.5c0.577,0,1,0.438,1,1c0,0.595-0.334,1-1,1s-1-0.367-1-1h-2c0,1.245,0.684,1.78,2,1.94V50h2v-1.075     c1.326-0.2,2.025-0.874,2-2.425c0-1.375-1-2.499-3-2.499c-0.563,0-1-0.313-1-1.001C19,42.482,19.281,42,20,42z" fill="#FFAB00"/></g><path d="M20,37c4.411,0,8,3.589,8,8s-3.589,8-8,8s-8-3.589-8-8S15.589,37,20,37 M20,36c-4.971,0-9,4.03-9,9    s4.029,9,9,9s9-4.03,9-9S24.971,36,20,36L20,36z" fill="#FFC400"/></g><rect fill="#00BCD4" height="6" width="1" x="50" y="31"/><rect fill="#00BCD4" height="7" width="1" x="35" y="37"/><rect fill="#00BCD4" height="8" width="1" x="47" y="34"/><rect fill="#00BCD4" height="11" width="1" x="38" y="30"/></g></svg>